<svg xmlns="http://www.w3.org/2000/svg" viewBox="0 0 100 100">
  <defs>
    <!--
      Ids are prefixed, not reused from the other plugins: the Plugin Store
      lists several icons on one page, and duplicate gradient ids would have
      each plugin painted in whichever one loaded last.
    -->
    <linearGradient id="fbBg" x1="0" y1="0" x2="0" y2="1">
      <stop offset="0" stop-color="#FBBF24"/>
      <stop offset="1" stop-color="#EA580C"/>
    </linearGradient>
    <linearGradient id="fbSheen" x1="0" y1="0" x2="0" y2="1">
      <stop offset="0" stop-color="#ffffff" stop-opacity="0.22"/>
      <stop offset="0.55" stop-color="#ffffff" stop-opacity="0"/>
    </linearGradient>
  </defs>
  <rect x="0" y="0" width="100" height="100" rx="24" fill="url(#fbBg)"/>
  <rect x="0" y="0" width="100" height="100" rx="24" fill="url(#fbSheen)"/>
  <g transform="translate(5.97 5.89) scale(0.92)" fill-rule="evenodd">
    <path fill="#ffffff" fill-opacity="0.8" d="M 48.62 38.89 L 47.88 38.83 L 47.38 38.60 L 46.27 37.00 L 45.75 35.05 L 43.20 27.75 L 42.69 25.62 L 42.12 24.50 L 41.74 22.75 L 41.12 21.50 L 40.68 19.62 L 38.28 12.62 L 38.17 11.88 L 38.30 11.25 L 38.97 10.25 L 39.62 9.89 L 40.50 9.76 L 41.62 10.23 L 42.70 12.25 L 43.18 14.25 L 43.75 15.38 L 45.04 19.88 L 48.75 30.75 L 49.14 32.50 L 49.76 33.75 L 50.44 36.62 L 50.45 37.25 L 49.62 38.50 Z M 39.50 38.88 L 38.88 38.89 L 38.25 38.68 L 37.12 37.50 L 33.75 27.06 L 33.19 25.75 L 32.75 24.05 L 32.15 22.62 L 31.99 21.50 L 32.19 20.50 L 32.71 20.00 L 33.75 19.51 L 34.25 19.45 L 34.75 19.61 L 35.50 20.07 L 35.91 20.62 L 37.75 25.75 L 38.14 27.50 L 38.75 28.70 L 39.14 30.50 L 39.75 31.70 L 40.14 33.50 L 40.75 34.72 L 41.06 36.75 L 41.00 37.50 L 40.17 38.50 Z M 58.00 38.89 L 57.00 38.72 L 56.19 38.00 L 55.88 37.50 L 55.19 35.75 L 54.65 33.50 L 54.08 32.38 L 53.69 30.62 L 53.12 29.50 L 52.68 27.62 L 51.09 23.00 L 50.85 21.62 L 50.98 20.62 L 51.38 20.07 L 52.38 19.50 L 52.88 19.46 L 53.62 19.70 L 54.38 20.15 L 54.75 20.62 L 59.79 35.88 L 59.89 36.75 L 59.69 37.62 L 58.75 38.60 Z"/>
    <path fill="#ffffff" d="M 47.75 86.13 L 47.00 86.12 L 46.12 85.76 L 45.17 84.12 L 43.59 75.75 L 43.15 74.50 L 42.71 71.50 L 42.25 70.27 L 41.81 67.38 L 41.10 64.75 L 40.55 61.62 L 40.15 60.50 L 39.71 57.50 L 38.85 54.75 L 36.67 51.62 L 32.11 46.62 L 31.34 45.12 L 31.27 44.50 L 32.25 43.15 L 33.62 42.82 L 62.12 42.81 L 63.38 43.01 L 63.88 43.42 L 64.45 44.75 L 64.39 45.38 L 63.75 47.42 L 63.15 48.50 L 62.67 50.25 L 62.07 51.38 L 61.52 53.12 L 59.23 58.75 L 58.77 60.38 L 58.15 61.50 L 57.67 63.25 L 57.07 64.38 L 56.52 66.12 L 54.23 71.75 L 53.77 73.38 L 53.15 74.50 L 52.79 76.00 L 52.12 77.23 L 49.69 83.88 L 48.75 85.64 Z"/>
  </g>
</svg>
